<svg width="29" height="27" viewBox="0 0 29 27" fill="none" xmlns="http://www.w3.org/2000/svg">
<path d="M14.645 22.7897L14.5 22.9362L14.3405 22.7897C7.453 16.473 2.9 12.2962 2.9 8.06066C2.9 5.12951 5.075 2.93115 7.975 2.93115C10.208 2.93115 12.383 4.39672 13.1515 6.3899H15.8485C16.617 4.39672 18.792 2.93115 21.025 2.93115C23.925 2.93115 26.1 5.12951 26.1 8.06066C26.1 12.2962 21.547 16.473 14.645 22.7897ZM21.025 0C18.502 0 16.0805 1.18711 14.5 3.04839C12.9195 1.18711 10.498 0 7.975 0C3.509 0 0 3.53203 0 8.06066C0 13.5859 4.93 18.1145 12.3975 24.9587L14.5 26.8933L16.6025 24.9587C24.07 18.1145 29 13.5859 29 8.06066C29 3.53203 25.491 0 21.025 0Z" fill="black"/>
</svg>
