<svg width="30" height="27" viewBox="0 0 31 28" fill="none" xmlns="http://www.w3.org/2000/svg">
<path d="M15.4793 23.4249L15.3261 23.5755L15.1575 23.4249C7.87761 16.9322 3.06522 12.6389 3.06522 8.28532C3.06522 5.27248 5.36413 3.01285 8.42935 3.01285C10.7896 3.01285 13.0885 4.51927 13.9008 6.568H16.7514C17.5637 4.51927 19.8626 3.01285 22.2228 3.01285C25.288 3.01285 27.587 5.27248 27.587 8.28532C27.587 12.6389 22.7746 16.9322 15.4793 23.4249ZM22.2228 0C19.5561 0 16.9966 1.2202 15.3261 3.13336C13.6555 1.2202 11.0961 0 8.42935 0C3.70891 0 0 3.63048 0 8.28532C0 13.9645 5.21087 18.6194 13.1038 25.6544L15.3261 27.6429L17.5484 25.6544C25.4413 18.6194 30.6522 13.9645 30.6522 8.28532C30.6522 3.63048 26.9433 0 22.2228 0Z" fill="black"/>
</svg>
