<svg width="56" height="57" viewBox="0 0 56 57" fill="none" xmlns="http://www.w3.org/2000/svg">
<rect x="0.5" y="1" width="55" height="55" stroke="#D9D9D9"/>
<rect x="0.5" y="1" width="55" height="55" stroke="black" stroke-opacity="0.2"/>
<circle cx="28" cy="28.5" r="28" fill="#FF5E5E"/>
<path d="M19.5979 31.2161C19.5181 31.2161 19.4424 31.2161 19.3706 31.2161C19.5622 30.9165 19.8558 30.5862 20.3017 30.2652L20.3023 30.2648C21.3991 29.4743 23.3833 28.7657 27 28.6556V29.7532C23.5648 29.8622 21.8563 30.5301 21.0179 31.1235C20.9728 31.1528 20.9288 31.1837 20.8861 31.2161H19.6022H19.5979ZM29 29.7532V28.6556C32.6151 28.7657 34.6009 29.4743 35.6976 30.2648L35.7069 30.2715L35.7163 30.2779C36.0821 30.5292 36.3904 30.8488 36.6246 31.2161C36.5542 31.2161 36.4801 31.2161 36.4021 31.2161H35.1064C35.0752 31.1917 35.0426 31.1671 35.0086 31.1425L35.0056 31.1403C34.1757 30.5428 32.4659 29.8633 29 29.7532ZM35.7646 32.0096C35.7646 32.0094 35.7643 32.0088 35.764 32.008L35.7644 32.0089L35.7646 32.0094L35.7646 32.0096ZM38.918 37.2684C37.4156 36.7301 36.2952 35.5031 35.9432 34.0172H37.133C37.4325 34.9561 38.1439 35.7344 39.0849 36.146L38.918 37.2684ZM41.0447 36.5645L43.2661 36.8844L43.1044 37.9722L40.8829 37.6523L41.0447 36.5645ZM49.4651 34.6222C49.0035 36.5836 47.2135 38.0381 45.0995 38.1584L45.2663 37.043C46.6827 36.8729 47.8647 35.9116 48.2751 34.6222H49.4651ZM49.5806 32.6222H48.4298V30.2347H49.5806V32.6222ZM49.4961 28.2347H48.325C48.2445 27.8693 48.1167 27.5251 47.9393 27.2126L48.7328 26.3406C49.1361 26.9134 49.3793 27.5648 49.4961 28.2347ZM6.92861 28.4173L7.84508 29.1637C7.77367 29.3447 7.71695 29.5332 7.67402 29.7275H6.50346C6.58208 29.2776 6.71915 28.8351 6.92861 28.4173ZM6.41931 31.7275H7.5701V33.6979H6.41931V31.7275ZM6.53408 35.6979H7.72416C8.18777 37.1577 9.63817 38.1759 11.2582 38.1461L11.5809 39.2279C9.21995 39.4173 7.04847 37.8935 6.53408 35.6979ZM15.8116 38.1151L13.5322 38.7727L13.5017 38.6705L13.2189 37.7179L15.497 37.0607L15.8116 38.1151ZM20.0564 34.4879C19.7569 35.7515 18.8998 36.8371 17.7046 37.4646L17.3791 36.3738C18.0931 35.9307 18.62 35.2612 18.8667 34.4879H20.0564ZM8.1522 26.8344C10.7116 24.1544 16.4548 19.8353 27 19.5766V20.674C16.8759 20.9303 11.4239 25.0471 9.02727 27.5471L8.1522 26.8344ZM29 20.6715V19.5742C38.849 19.7681 44.5009 22.8044 47.2857 24.9592L46.5314 25.7881C43.9293 23.7837 38.5309 20.8638 29 20.6715Z" fill="#FF0707" stroke="white" stroke-width="2"/>
</svg>
