<svg width="28" height="29" viewBox="0 0 28 29" fill="none" xmlns="http://www.w3.org/2000/svg">
<g clip-path="url(#clip0_161_3164)">
<path d="M22.4902 20.7179V24.4359M20.6601 22.5769H24.3203M27.0654 22.5769C27.0654 25.1436 25.017 27.2243 22.4902 27.2243C19.9634 27.2243 17.915 25.1436 17.915 22.5769C17.915 20.0102 19.9634 17.9294 22.4902 17.9294C25.017 17.9294 27.0654 20.0102 27.0654 22.5769Z" stroke="#1E1E1E" stroke-width="1.6" stroke-linecap="round" stroke-linejoin="round"/>
</g>
<path fill-rule="evenodd" clip-rule="evenodd" d="M18.651 12.0873C19.9878 13.1265 20.9537 14.5847 21.4005 16.2383L21.6064 17H19.6694L19.6005 16.7452C19.2624 15.4939 18.5314 14.3903 17.5197 13.6039C16.5081 12.8174 15.2716 12.3915 14 12.3915C12.7284 12.3915 11.4919 12.8174 10.4802 13.6039C9.46857 14.3903 8.73759 15.4939 8.39944 16.7452L7.33462 20.6856C7.2199 21.1101 7.20278 21.556 7.2846 21.9883C7.36641 22.4207 7.54495 22.8279 7.80629 23.1783C8.06763 23.5286 8.40471 23.8126 8.79125 24.0081C9.17779 24.2036 9.60333 24.3053 10.0347 24.3053H17V26.2115H10.0347C9.31576 26.2115 8.60653 26.042 7.96232 25.7162C7.31811 25.3904 6.75632 24.917 6.32076 24.3331C5.8852 23.7492 5.58764 23.0705 5.45127 22.3499C5.31491 21.6293 5.34344 20.8863 5.53462 20.1788L6.59944 16.2383C7.04626 14.5847 8.01218 13.1265 9.349 12.0873C10.6858 11.0481 12.3197 10.4853 14 10.4853C15.6803 10.4853 17.3142 11.0481 18.651 12.0873ZM6.98019 8.68918C7.53407 9.66825 7.74951 10.7778 7.58705 11.8143C7.41281 12.9239 6.83396 13.8197 5.95721 14.3365C5.46465 14.6269 4.90549 14.7788 4.3367 14.7767C3.88016 14.7738 3.42799 14.6856 3.00259 14.5163C2.04229 14.1419 1.20849 13.3964 0.654781 12.4174C-0.525281 10.3313 -0.0663385 7.79785 1.67764 6.76993C2.55491 6.25311 3.60386 6.18925 4.63226 6.59021C5.59257 6.96484 6.4263 7.71011 6.98019 8.68918ZM5.02345 12.6857C5.40409 12.4614 5.65967 12.0449 5.74311 11.513C5.83788 10.9078 5.70291 10.2432 5.36295 9.64204C5.02299 9.04093 4.52687 8.58946 3.96593 8.37067C3.75454 8.28576 3.52973 8.241 3.30258 8.2386C3.06043 8.2359 2.8219 8.29875 2.61128 8.42076C1.77346 8.91471 1.61812 10.3086 2.27167 11.4643C2.61163 12.0654 3.10774 12.5169 3.66868 12.7356C4.16176 12.9277 4.64282 12.9101 5.02345 12.6857ZM9.97507 8.68811C9.20943 8.68817 8.4523 8.40641 7.7893 7.86534C6.98643 7.21003 6.41469 6.24078 6.17947 5.13596C5.67828 2.7821 6.87142 0.511808 8.83918 0.0751679C9.82872 -0.144522 10.8472 0.121095 11.707 0.822816C12.51 1.47813 13.0817 2.44738 13.3169 3.55214C13.8181 5.90601 12.625 8.17629 10.6571 8.61299C10.4331 8.66285 10.2044 8.68804 9.97507 8.68811ZM9.51187 1.9081C9.41905 1.90793 9.32648 1.91791 9.23574 1.93789C8.29043 2.14769 7.7264 3.42681 8.00421 4.73143C8.14858 5.40968 8.48638 5.99399 8.95536 6.37678C9.36744 6.71316 9.831 6.84588 10.2605 6.75057C11.2059 6.54077 11.7699 5.26165 11.4922 3.95739C11.3478 3.27908 11.01 2.69477 10.541 2.31204C10.2159 2.04672 9.85895 1.9081 9.51187 1.9081ZM23.3677 6.59021C24.3959 6.18925 25.4454 6.25311 26.3223 6.76993C28.0663 7.79785 28.5253 10.3313 27.3453 12.4174C26.7916 13.3964 25.9578 14.1419 24.9975 14.5163C24.5721 14.6856 24.1199 14.7738 23.6634 14.7767C23.0946 14.7788 22.5354 14.627 22.0429 14.3365C21.1658 13.8197 20.587 12.9239 20.413 11.8143C20.2507 10.7781 20.4662 9.66825 21.0199 8.68918C21.5736 7.71011 22.4074 6.96472 23.3677 6.59021ZM24.3313 12.7356C24.8922 12.5169 25.3883 12.0654 25.7283 11.4643C26.382 10.3083 26.2265 8.91459 25.3887 8.42106C25.1781 8.29905 24.9395 8.23619 24.6974 8.2389C24.4702 8.24138 24.2454 8.28622 24.034 8.3712C23.4731 8.59 22.977 9.04177 22.637 9.64258C22.297 10.2434 22.1621 10.9078 22.257 11.513C22.3406 12.0449 22.596 12.4613 22.9766 12.6857C23.3573 12.9102 23.8384 12.9279 24.3313 12.7356ZM18.0249 8.68811C17.7956 8.68804 17.5669 8.66285 17.3428 8.61299C15.375 8.17629 14.1819 5.90601 14.6831 3.55214C14.9183 2.44744 15.49 1.47813 16.2929 0.822876C17.1528 0.121095 18.1713 -0.144343 19.1608 0.0752274C21.1286 0.511867 22.3217 2.78216 21.8205 5.13602C21.5853 6.24078 21.0135 7.21009 20.2107 7.86534C19.5479 8.40641 18.7905 8.68811 18.0249 8.68811ZM17.4589 2.31174C16.99 2.69423 16.6522 3.27878 16.5078 3.95709C16.23 5.26117 16.7941 6.54047 17.7396 6.74998C18.1694 6.84523 18.6327 6.71251 19.0447 6.37618C19.5136 5.99363 19.8514 5.40908 19.9959 4.73077C20.2736 3.42681 19.7095 2.14739 18.7642 1.93759C18.6735 1.91762 18.5809 1.90763 18.4881 1.9078C18.141 1.9078 17.7841 2.04642 17.4589 2.31174Z" fill="black"/>
<defs>
<clipPath id="clip0_161_3164">
<rect width="10.9804" height="11.1538" fill="white" transform="translate(17 17)"/>
</clipPath>
</defs>
</svg>
