<svg width="27" height="28" viewBox="0 0 27 28" fill="none" xmlns="http://www.w3.org/2000/svg">
<path d="M12.375 2.0625V1.03125C12.375 0.757745 12.4836 0.495443 12.677 0.302046C12.8704 0.108649 13.1327 0 13.4062 0C13.6798 0 13.9421 0.108649 14.1355 0.302046C14.3289 0.495443 14.4375 0.757745 14.4375 1.03125V2.0625C14.4375 2.336 14.3289 2.59831 14.1355 2.7917C13.9421 2.9851 13.6798 3.09375 13.4062 3.09375C13.1327 3.09375 12.8704 2.9851 12.677 2.7917C12.4836 2.59831 12.375 2.336 12.375 2.0625ZM22.6875 6.1875C22.823 6.18761 22.9571 6.16102 23.0823 6.10927C23.2075 6.05751 23.3213 5.98159 23.4171 5.88586L24.4484 4.85461C24.6419 4.6611 24.7506 4.39866 24.7506 4.125C24.7506 3.85134 24.6419 3.5889 24.4484 3.39539C24.2549 3.20189 23.9924 3.09318 23.7188 3.09318C23.4451 3.09318 23.1826 3.20189 22.9891 3.39539L21.9579 4.42664C21.8135 4.57087 21.7152 4.75469 21.6753 4.95484C21.6354 5.15499 21.6559 5.36247 21.734 5.551C21.8121 5.73954 21.9444 5.90066 22.1141 6.01396C22.2839 6.12727 22.4834 6.18766 22.6875 6.1875ZM3.39539 5.88586C3.5889 6.07936 3.85134 6.18807 4.125 6.18807C4.39866 6.18807 4.6611 6.07936 4.85461 5.88586C5.04811 5.69235 5.15682 5.42991 5.15682 5.15625C5.15682 4.88259 5.04811 4.62015 4.85461 4.42664L3.82336 3.39539C3.62985 3.20189 3.36741 3.09318 3.09375 3.09318C2.82009 3.09318 2.55765 3.20189 2.36414 3.39539C2.17064 3.5889 2.06193 3.85134 2.06193 4.125C2.06193 4.39866 2.17064 4.6611 2.36414 4.85461L3.39539 5.88586ZM14.6102 9.29543C14.4761 9.27171 14.3386 9.2748 14.2056 9.30452C14.0727 9.33425 13.9469 9.39003 13.8357 9.46862C13.7244 9.54722 13.6298 9.64709 13.5573 9.76245C13.4849 9.87782 13.436 10.0064 13.4135 10.1408C13.3911 10.2751 13.3954 10.4126 13.4264 10.5453C13.4573 10.6779 13.5143 10.8032 13.5939 10.9137C13.6735 11.0242 13.7743 11.1179 13.8903 11.1893C14.0063 11.2607 14.1354 11.3083 14.2699 11.3296C16.7153 11.7408 18.5625 13.9631 18.5625 16.5C18.5625 16.7735 18.6711 17.0358 18.8645 17.2292C19.0579 17.4226 19.3202 17.5312 19.5938 17.5312C19.8673 17.5312 20.1296 17.4226 20.323 17.2292C20.5164 17.0358 20.625 16.7735 20.625 16.5C20.625 12.968 18.0379 9.87035 14.6077 9.29543H14.6102ZM26.8125 22.6875V25.7812C26.8125 26.3283 26.5952 26.8529 26.2084 27.2397C25.8216 27.6265 25.297 27.8438 24.75 27.8438H2.0625C1.51549 27.8438 0.990886 27.6265 0.604092 27.2397C0.217298 26.8529 0 26.3283 0 25.7812V22.6875C0 22.1405 0.217298 21.6159 0.604092 21.2291C0.990886 20.8423 1.51549 20.625 2.0625 20.625V16.5C2.06246 15.003 2.35871 13.5208 2.93418 12.1389C3.50965 10.7569 4.35295 9.50257 5.41548 8.44807C6.47801 7.39357 7.73875 6.5598 9.12502 5.99483C10.5113 5.42985 11.9957 5.14485 13.4926 5.15625C19.6995 5.20266 24.75 10.3499 24.75 16.6289V20.625C25.297 20.625 25.8216 20.8423 26.2084 21.2291C26.5952 21.6159 26.8125 22.1405 26.8125 22.6875ZM4.125 20.625H22.6875V16.6289C22.6875 11.4727 18.5561 7.25613 13.4771 7.21875H13.4062C10.9447 7.21875 8.58399 8.19659 6.84341 9.93716C5.10284 11.6777 4.125 14.0385 4.125 16.5V20.625ZM24.75 25.7812V22.6875H2.0625V25.7812H24.75Z" fill="white"/>
</svg>
