<svg width="28" height="30" viewBox="0 0 28 30" fill="none" xmlns="http://www.w3.org/2000/svg">
<path fill-rule="evenodd" clip-rule="evenodd" d="M7.7893 7.86534C8.4523 8.40641 9.20943 8.68817 9.97507 8.68811C10.2044 8.68804 10.4331 8.66285 10.6571 8.61299C12.625 8.17629 13.8181 5.90601 13.3169 3.55214C13.0817 2.44738 12.51 1.47813 11.707 0.822816C10.8472 0.121095 9.82872 -0.144522 8.83918 0.0751679C6.87142 0.511808 5.67828 2.7821 6.17947 5.13596C6.41469 6.24078 6.98643 7.21003 7.7893 7.86534ZM6.98019 8.68918C7.53407 9.66825 7.74951 10.7778 7.58705 11.8143C7.41281 12.9239 6.83396 13.8197 5.95721 14.3365C5.46465 14.6269 4.90549 14.7788 4.3367 14.7767C3.88016 14.7738 3.42799 14.6856 3.00259 14.5163C2.04229 14.1419 1.20849 13.3964 0.654781 12.4174C-0.525281 10.3313 -0.0663387 7.79785 1.67764 6.76993C2.55491 6.25311 3.60386 6.18925 4.63226 6.59021C5.59257 6.96484 6.4263 7.71011 6.98019 8.68918ZM18.651 12.0873C19.9878 13.1265 20.9537 14.5847 21.4005 16.2383L21.8766 18H17V26.2115H10.0347C9.31576 26.2115 8.60653 26.042 7.96232 25.7162C7.31811 25.3904 6.75632 24.917 6.32076 24.3331C5.8852 23.7492 5.58764 23.0705 5.45127 22.3499C5.31491 21.6293 5.34344 20.8863 5.53462 20.1788L6.59944 16.2383C7.04626 14.5847 8.01218 13.1265 9.349 12.0873C10.6858 11.0481 12.3197 10.4853 14 10.4853C15.6803 10.4853 17.3142 11.0481 18.651 12.0873ZM23.3677 6.59021C24.3959 6.18925 25.4454 6.25311 26.3223 6.76993C28.0663 7.79785 28.5253 10.3313 27.3453 12.4174C26.7916 13.3964 25.9578 14.1419 24.9975 14.5163C24.5721 14.6856 24.1199 14.7738 23.6634 14.7767C23.0946 14.7788 22.5354 14.627 22.0429 14.3365C21.2112 13.8464 20.6478 13.0157 20.4433 11.9851C20.393 11.93 20.3798 11.8731 20.413 11.8143C20.2507 10.7781 20.4662 9.66825 21.0199 8.68918C21.5736 7.71011 22.4074 6.96472 23.3677 6.59021ZM17.3428 8.61299C17.5669 8.66285 17.7956 8.68804 18.0249 8.68811C18.7905 8.68811 19.5479 8.40641 20.2107 7.86534C21.0135 7.21009 21.5853 6.24078 21.8205 5.13602C22.3217 2.78216 21.1286 0.511867 19.1608 0.0752274C18.1713 -0.144343 17.1528 0.121095 16.2929 0.822876C15.49 1.47813 14.9183 2.44744 14.6831 3.55214C14.1819 5.90601 15.375 8.17629 17.3428 8.61299Z" fill="#FCD5CE"/>
<path d="M20.4664 27.8388L20.4657 27.8382C18.9109 26.4295 17.6606 25.2942 16.7932 24.2339C15.9313 23.1804 15.5 22.2624 15.5 21.297C15.5 19.7219 16.7271 18.5 18.3 18.5C19.193 18.5 20.0583 18.9179 20.6207 19.5727L21 20.0142L21.3793 19.5727C21.9417 18.9179 22.807 18.5 23.7 18.5C25.2729 18.5 26.5 19.7219 26.5 21.297C26.5 22.2624 26.0687 23.1804 25.2068 24.2339C24.3394 25.2942 23.0891 26.4295 21.5343 27.8382L21.5336 27.8388L21 28.3241L20.4664 27.8388Z" fill="#FE85AC" stroke="black"/>
</svg>
