<svg width="29" height="27" viewBox="0 0 29 27" fill="none" xmlns="http://www.w3.org/2000/svg">
<path d="M14.6777 23.1121L14.8184 22.9699C18.263 19.8174 21.1388 17.1834 23.1515 14.8063C25.1629 12.4308 26.35 10.2698 26.35 8.06066C26.35 4.99396 24.0656 2.68115 21.025 2.68115C18.753 2.68115 16.5391 4.12888 15.6803 6.1399H13.3197C12.4609 4.12888 10.247 2.68115 7.975 2.68115C4.93442 2.68115 2.65 4.99396 2.65 8.06066C2.65 10.2697 3.83706 12.4308 5.84657 14.8062C7.85718 17.1829 10.7289 19.8167 14.1657 22.9686L14.1713 22.9738L14.1715 22.9739L14.3308 23.1203L14.5083 23.2833L14.6777 23.1121ZM14.3094 3.21021L14.5 3.43463L14.6906 3.21021C16.2257 1.40239 18.5786 0.25 21.025 0.25C25.3507 0.25 28.75 3.66788 28.75 8.06066C28.75 10.7419 27.556 13.2007 25.4072 15.8579C23.2556 18.5185 20.1722 21.3478 16.4336 24.7744L16.4332 24.7748L14.5 26.5536L12.5668 24.7748L12.5664 24.7744C8.8278 21.3478 5.74444 18.5185 3.59283 15.8579C1.44404 13.2007 0.25 10.7419 0.25 8.06066C0.25 3.66788 3.64929 0.25 7.975 0.25C10.4214 0.25 12.7743 1.40239 14.3094 3.21021Z" fill="black" stroke="white" stroke-width="0.5"/>
</svg>
