<svg width="24" height="25" viewBox="0 0 24 25" fill="none" xmlns="http://www.w3.org/2000/svg">
<g clip-path="url(#clip0_305_6970)">
<path d="M19.2773 17.8603V21.0654M17.7087 19.4628H20.8459M23.1989 19.4628C23.1989 21.6755 21.4431 23.4692 19.2773 23.4692C17.1115 23.4692 15.3557 21.6755 15.3557 19.4628C15.3557 17.2502 17.1115 15.4564 19.2773 15.4564C21.4431 15.4564 23.1989 17.2502 23.1989 19.4628Z" stroke="white" stroke-width="1.6" stroke-linecap="round" stroke-linejoin="round"/>
</g>
<path fill-rule="evenodd" clip-rule="evenodd" d="M15.9865 10.4201C17.1324 11.3159 17.9603 12.573 18.3433 13.9985L18.5197 14.6552H16.8595L16.8005 14.4355C16.5106 13.3568 15.8841 12.4054 15.0169 11.7275C14.1498 11.0495 13.0899 10.6824 12 10.6824C10.91 10.6824 9.85021 11.0495 8.98306 11.7275C8.11592 12.4054 7.48936 13.3568 7.19952 14.4355L6.28682 17.8324C6.18849 18.1984 6.17381 18.5827 6.24394 18.9555C6.31407 19.3282 6.4671 19.6793 6.69111 19.9813C6.91512 20.2833 7.20404 20.5281 7.53536 20.6967C7.86667 20.8652 8.23143 20.9529 8.60118 20.9529H14.5714V22.5962H8.60118C7.98494 22.5961 7.37703 22.45 6.82484 22.1691C6.27266 21.8882 5.79113 21.4802 5.41779 20.9768C5.04445 20.4735 4.7894 19.8884 4.67252 19.2672C4.55564 18.6459 4.58009 18.0054 4.74396 17.3955L5.65666 13.9985C6.03966 12.573 6.86758 11.3159 8.01343 10.4201C9.15927 9.52422 10.5597 9.03907 12 9.03907C13.4402 9.03907 14.8407 9.52422 15.9865 10.4201ZM5.98302 7.49067C6.45777 8.3347 6.64243 9.29124 6.50319 10.1848C6.35384 11.1413 5.85768 11.9135 5.10618 12.3591C4.68399 12.6094 4.20471 12.7403 3.71717 12.7385C3.32585 12.736 2.93827 12.66 2.57365 12.5141C1.75053 12.1913 1.03585 11.5486 0.561241 10.7046C-0.450241 8.90625 -0.0568616 6.72229 1.43798 5.83615C2.18992 5.39061 3.08902 5.33556 3.97051 5.68122C4.79363 6.00417 5.50826 6.64664 5.98302 7.49067ZM4.30582 10.936C4.63207 10.7426 4.85115 10.3836 4.92267 9.92504C5.0039 9.40324 4.88821 8.8303 4.59681 8.31211C4.30542 7.79391 3.88018 7.40471 3.39937 7.21609C3.21818 7.1429 3.02549 7.10431 2.83078 7.10224C2.62322 7.09991 2.41877 7.1541 2.23824 7.25928C1.5201 7.68509 1.38696 8.88674 1.94714 9.88298C2.23854 10.4012 2.66378 10.7904 3.14459 10.9789C3.56723 11.1446 3.97956 11.1294 4.30582 10.936ZM8.55006 7.48975C7.89379 7.4898 7.24483 7.2469 6.67654 6.78047C5.98837 6.21554 5.49831 5.37998 5.29669 4.42755C4.8671 2.39836 5.88979 0.441213 7.57644 0.0647999C8.42462 -0.124588 9.2976 0.104393 10.0346 0.709324C10.7228 1.27425 11.2129 2.10981 11.4144 3.06219C11.8441 5.09138 10.8214 7.04853 9.1347 7.42499C8.94263 7.46798 8.74663 7.48969 8.55006 7.48975ZM8.15303 1.64491C8.07347 1.64477 7.99412 1.65337 7.91635 1.67059C7.10609 1.85145 6.62263 2.95415 6.86075 4.07882C6.98449 4.66352 7.27404 5.16723 7.67602 5.49722C8.02924 5.78721 8.42657 5.90162 8.79474 5.81946C9.60505 5.6386 10.0885 4.5359 9.85043 3.41154C9.72669 2.82679 9.43715 2.32308 9.03517 1.99314C8.75653 1.76441 8.45053 1.64491 8.15303 1.64491ZM20.0295 5.68122C20.9108 5.33556 21.8104 5.39061 22.562 5.83615C24.0568 6.72229 24.4502 8.90625 23.4388 10.7046C22.9642 11.5486 22.2495 12.1913 21.4264 12.5141C21.0618 12.66 20.6742 12.736 20.2829 12.7385C19.7954 12.7404 19.3161 12.6094 18.8939 12.3591C18.1421 11.9135 17.646 11.1413 17.4969 10.1848C17.3577 9.29145 17.5425 8.3347 18.0171 7.49067C18.4917 6.64664 19.2063 6.00407 20.0295 5.68122ZM20.8554 10.9789C21.3362 10.7904 21.7614 10.4012 22.0528 9.88298C22.6132 8.88648 22.4799 7.68499 21.7617 7.25954C21.5812 7.15435 21.3768 7.10017 21.1692 7.1025C20.9745 7.10464 20.7818 7.14329 20.6006 7.21655C20.1198 7.40517 19.6946 7.79463 19.4032 8.31257C19.1117 8.83051 18.9961 9.40324 19.0774 9.92504C19.1491 10.3836 19.368 10.7425 19.6943 10.936C20.0205 11.1295 20.4329 11.1447 20.8554 10.9789ZM15.4499 7.48975C15.2533 7.48969 15.0573 7.46798 14.8653 7.42499C13.1786 7.04853 12.1559 5.09138 12.5855 3.06219C12.7871 2.10986 13.2772 1.27425 13.9654 0.709376C14.7024 0.104392 15.5754 -0.124434 16.4235 0.0648512C18.1102 0.441265 19.1329 2.39841 18.7033 4.4276C18.5017 5.37998 18.0116 6.21559 17.3234 6.78047C16.7553 7.2469 16.1061 7.48975 15.4499 7.48975ZM14.9648 1.99288C14.5628 2.32261 14.2733 2.82653 14.1495 3.41129C13.9115 4.53549 14.3949 5.63834 15.2053 5.81895C15.5738 5.90106 15.9709 5.78664 16.3241 5.49671C16.7259 5.16692 17.0155 4.663 17.1393 4.07825C17.3773 2.95415 16.8939 1.8512 16.0836 1.67033C16.0059 1.65312 15.9265 1.64451 15.8469 1.64466C15.5495 1.64466 15.2435 1.76416 14.9648 1.99288Z" fill="white"/>
<defs>
<clipPath id="clip0_305_6970">
<rect width="9.41177" height="9.61539" fill="white" transform="translate(14.5714 14.6552)"/>
</clipPath>
</defs>
</svg>
