<svg width="35" height="35" viewBox="0 0 35 35" fill="none" xmlns="http://www.w3.org/2000/svg">
<rect x="0.5" y="0.5" width="34" height="34" rx="17" fill="#FF5894" fill-opacity="0.62"/>
<rect x="0.5" y="0.5" width="34" height="34" rx="17" stroke="#FCD5CE"/>
<path d="M14.4125 26.0499C14.375 26.0499 14.4125 26.0499 14.4125 26.0499C14.3 26.0499 14.225 26.0499 14.15 26.0124C14.075 25.9749 14 25.9375 13.925 25.9C13.8875 25.8624 13.8125 25.8249 13.775 25.7874C13.7 25.7124 13.6625 25.6749 13.625 25.5999C13.5875 25.5249 13.55 25.4874 13.55 25.4124L11.6375 18.2874L6.0875 16.375C5.75 16.2625 5.4875 15.925 5.525 15.55C5.525 15.175 5.7875 14.875 6.1625 14.7625L27.9125 8.98745H27.95C27.9875 8.98745 28.0625 8.98745 28.1 8.94995C28.1375 8.94995 28.1375 8.94995 28.175 8.94995C28.25 8.94995 28.325 8.94995 28.4 8.98745C28.475 9.02495 28.55 9.06245 28.625 9.09995C28.6625 9.09995 28.6625 9.13745 28.7 9.13745C28.7375 9.17495 28.775 9.21245 28.775 9.21245C28.8125 9.24995 28.85 9.32495 28.8875 9.36245C28.925 9.43745 28.925 9.47495 28.9625 9.54995C28.9625 9.58745 28.9625 9.66245 29 9.69995C29 9.73745 29 9.77495 29 9.77495C29 9.84995 29 9.92495 28.9625 9.99995V10.0375L23.975 23.2C23.9 23.4249 23.7125 23.6124 23.4875 23.6874C23.2625 23.7624 23.0375 23.7624 22.8125 23.6874L19.325 22.075L14.975 25.8249C14.9375 25.8624 14.8625 25.9 14.7875 25.9375C14.7125 25.9749 14.6375 26.0124 14.5625 26.0124C14.525 26.0499 14.45 26.0499 14.4125 26.0499ZM16.6625 20.6875L16.0625 22.6375L17.7125 21.2125L16.6625 20.6875ZM13.3625 18.0625L14.45 22.15L15.35 19.2249V19.1875C15.3875 19.1124 15.425 19.0374 15.4625 19C15.5 18.9625 15.5 18.9249 15.5375 18.9249C15.575 18.8875 15.6125 18.8499 15.65 18.8125L21.6125 13.975L13.3625 18.0625ZM19.5875 20.275L22.7375 21.7374L26.225 12.4L17.7125 19.2999L19.5875 20.275ZM9.275 15.6625L12.3125 16.675L20.2625 12.7375L9.275 15.6625Z" fill="white"/>
</svg>
