<svg width="28" height="25" viewBox="0 0 28 25" fill="none" xmlns="http://www.w3.org/2000/svg">
<path d="M23.0887 18.2994C22.7253 18.4849 22.2648 18.5995 21.5115 18.6621C20.7456 18.7249 19.7681 18.725 18.3875 18.725H7.36025H7.36012C6.72469 18.7256 6.11355 18.9598 5.64162 19.3801L5.63775 19.3762L5.53168 19.4823L2.775 22.239V19.6875V11.5625V9.6125C2.775 8.23181 2.77513 7.25293 2.83947 6.48884L2.83951 6.48836C2.90054 5.7351 3.01511 5.2747 3.2006 4.91132L3.20066 4.9112C3.5758 4.17471 4.17454 3.57593 4.91102 3.20075C5.27488 3.01657 5.73575 2.90047 6.48868 2.83786C7.25294 2.77512 8.23197 2.775 9.6125 2.775H18.3875C19.7682 2.775 20.7455 2.77513 21.5112 2.83947L21.5116 2.83951C22.2649 2.90054 22.7253 3.01511 23.0887 3.2006L23.0887 3.20062C23.8247 3.57605 24.4229 4.17484 24.7977 4.91116L24.7978 4.91132C24.9834 5.27496 25.0995 5.73559 25.1621 6.48868C25.2249 7.25294 25.225 8.23197 25.225 9.6125V11.8875C25.225 13.2682 25.2249 14.2471 25.1605 15.0112L25.1605 15.0116C25.0995 15.765 24.9849 16.2251 24.798 16.5882L24.7977 16.5888C24.4226 17.3246 23.8244 17.9244 23.0888 18.2994L23.0887 18.2994ZM3.74182 23.9942L6.89256 20.8434L6.89269 20.8433C7.01683 20.7196 7.18496 20.65 7.36025 20.65C7.36026 20.65 7.36027 20.65 7.36028 20.65H18.3875H18.3942C19.7406 20.65 20.8083 20.65 21.6675 20.5796C22.5397 20.509 23.2831 20.3602 23.9626 20.0146L23.9627 20.0145C25.0615 19.4548 25.9548 18.5615 26.5145 17.4627L26.5146 17.4626C26.8602 16.7831 27.009 16.0397 27.0796 15.1675C27.15 14.3083 27.15 13.239 27.15 11.8942V11.8875V9.6125V9.60584C27.15 8.25941 27.15 7.19172 27.0796 6.33252C27.009 5.46033 26.8602 4.7169 26.5146 4.03737L26.5145 4.03729C25.9548 2.9385 25.0615 2.0452 23.9627 1.48547C23.283 1.13805 22.5394 0.990988 21.6678 0.918761L21.6673 0.918727C20.8082 0.85 19.739 0.85 18.3939 0.85H18.3875H9.6125H9.60595C8.25947 0.85 7.19174 0.85 6.33252 0.920365C5.46033 0.990994 4.7169 1.13976 4.03737 1.48543L4.03732 1.48545C2.93865 2.04482 2.04711 2.93918 1.48719 4.0371C1.13978 4.71674 0.991016 5.46027 0.918761 6.33224L0.918727 6.33266C0.85 7.19176 0.85 8.26102 0.85 9.60606V9.6125V11.5625V19.6875V22.7977C0.85 24.3062 2.67402 25.062 3.74182 23.9942Z" fill="black" stroke="black" stroke-width="0.3"/>
<path d="M8.3125 8.3125H19.6875M8.3125 13.1875H16.4375" stroke="black" stroke-width="2" stroke-linecap="round" stroke-linejoin="round"/>
</svg>
