<svg width="30" height="27" viewBox="0 0 30 27" fill="none" xmlns="http://www.w3.org/2000/svg">
<path d="M13.158 24.6848L13.1573 24.6842C9.28483 21.2396 6.11115 18.4124 3.89975 15.7585C1.69352 13.1108 0.5 10.6987 0.5 8.09264C0.5 3.83182 3.89642 0.5 8.25 0.5C10.7124 0.5 13.0814 1.62698 14.6237 3.38973L15 3.81981L15.3763 3.38973C16.9186 1.62698 19.2876 0.5 21.75 0.5C26.1036 0.5 29.5 3.83182 29.5 8.09264C29.5 10.6987 28.3065 13.1108 26.1003 15.7585C23.8888 18.4124 20.7152 21.2396 16.8427 24.6842L16.842 24.6848L15 26.3297L13.158 24.6848Z" fill="#FF0000" stroke="black"/>
</svg>
