<svg width="28" height="28" viewBox="0 0 28 28" fill="none" xmlns="http://www.w3.org/2000/svg">
<path d="M23 6.5L23 6.55C23.1379 6.55011 23.2745 6.52304 23.402 6.47034C23.5294 6.41765 23.6453 6.34035 23.7428 6.24288L23.7429 6.24286L24.7429 5.24286C24.9399 5.04584 25.0506 4.77863 25.0506 4.5C25.0506 4.22138 24.9399 3.95416 24.7429 3.75714C24.5458 3.56013 24.2786 3.44944 24 3.44944C23.7214 3.44944 23.4542 3.56013 23.2571 3.75714L22.2572 4.75712C22.1102 4.90397 22.01 5.09114 21.9694 5.29493C21.9289 5.49872 21.9496 5.70997 22.0292 5.90193C22.1087 6.09389 22.2434 6.25794 22.4163 6.37331C22.5891 6.48867 22.7922 6.55016 23 6.55L23 6.5ZM23 6.5C22.8021 6.50016 22.6086 6.44159 22.444 6.33172C22.2794 6.22185 22.1511 6.06561 22.0754 5.88279C21.9996 5.69997 21.9798 5.49878 22.0185 5.30469C22.0571 5.11061 22.1525 4.93236 22.2925 4.7925L23.7075 6.2075C23.6146 6.30033 23.5042 6.37395 23.3829 6.42414C23.2615 6.47432 23.1314 6.5001 23 6.5ZM14.4432 11.3928C14.5612 11.4654 14.6925 11.514 14.8294 11.5356C17.1757 11.9303 18.95 14.0637 18.95 16.5C18.95 16.7785 19.0606 17.0455 19.2575 17.2425C19.4545 17.4394 19.7215 17.55 20 17.55C20.2785 17.55 20.5455 17.4394 20.7425 17.2425C20.9394 17.0455 21.05 16.7785 21.05 16.5C21.05 13.0521 18.5256 10.0278 15.1762 9.46492L15.1762 9.46451C15.0396 9.44036 14.8996 9.44351 14.7642 9.47377C14.6289 9.50404 14.5008 9.56083 14.3876 9.64086C14.2743 9.72088 14.1779 9.82257 14.1042 9.94003C14.0304 10.0575 13.9806 10.1884 13.9578 10.3252C13.9349 10.462 13.9393 10.602 13.9708 10.7371C14.0023 10.8722 14.0603 10.9997 14.1414 11.1122C14.2225 11.2247 14.325 11.3201 14.4432 11.3928ZM12.95 1.5V2.5C12.95 2.77848 13.0606 3.04555 13.2575 3.24246C13.4545 3.43938 13.7215 3.55 14 3.55C14.2785 3.55 14.5455 3.43938 14.7425 3.24246C14.9394 3.04555 15.05 2.77848 15.05 2.5V1.5C15.05 1.22152 14.9394 0.954451 14.7425 0.757538C14.5455 0.560625 14.2785 0.45 14 0.45C13.7215 0.45 13.4545 0.560625 13.2575 0.757538C13.0606 0.954451 12.95 1.22152 12.95 1.5ZM4.25714 6.24286C4.45416 6.43987 4.72138 6.55056 5 6.55056C5.27863 6.55056 5.54584 6.43987 5.74286 6.24286C5.93987 6.04584 6.05056 5.77863 6.05056 5.5C6.05056 5.22137 5.93987 4.95416 5.74286 4.75714L4.74286 3.75714C4.54584 3.56013 4.27862 3.44944 4 3.44944C3.72138 3.44944 3.45416 3.56013 3.25714 3.75714C3.06013 3.95416 2.94944 4.22138 2.94944 4.5C2.94944 4.77863 3.06013 5.04584 3.25714 5.24286L4.25714 6.24286ZM27.05 25.5V22.5C27.05 21.9563 26.834 21.4349 26.4496 21.0504C26.0769 20.6778 25.5756 20.4634 25.05 20.4506V16.625C25.05 10.5093 20.1309 5.49521 14.0841 5.45C12.626 5.4389 11.18 5.71652 9.82964 6.26686C8.47927 6.8172 7.25117 7.62938 6.21616 8.65658C5.18114 9.68377 4.35967 10.9057 3.79911 12.2518C3.23854 13.598 2.94996 15.0418 2.95 16.5V20.4506C2.42442 20.4634 1.92308 20.6778 1.55043 21.0504C1.16598 21.4349 0.95 21.9563 0.95 22.5V25.5C0.95 26.0437 1.16598 26.5651 1.55043 26.9496C1.93488 27.334 2.45631 27.55 3 27.55H25C25.5437 27.55 26.0651 27.334 26.4496 26.9496C26.834 26.5651 27.05 26.0437 27.05 25.5ZM22.95 16.625V20.45H5.05V16.5C5.05 14.1263 5.99294 11.8498 7.67139 10.1714C9.34984 8.49294 11.6263 7.55 14 7.55H14.0686C18.9654 7.58615 22.95 11.6519 22.95 16.625ZM24.95 22.55V25.45H3.05V22.55H24.95Z" fill="white" stroke="black" stroke-width="0.1"/>
</svg>
