<svg width="35" height="35" viewBox="0 0 35 35" fill="none" xmlns="http://www.w3.org/2000/svg">
<rect x="0.5" y="0.5" width="34" height="34" rx="17" fill="#FF5894" fill-opacity="0.62"/>
<rect x="0.5" y="0.5" width="34" height="34" rx="17" stroke="#FCD5CE"/>
<g clip-path="url(#clip0_1839_6006)">
<path d="M27.5065 12.2458C27.3469 12.1508 27.1658 12.1007 26.9815 12.1007C26.7972 12.1007 26.6161 12.1508 26.4565 12.2458L22.75 14.1308C22.7201 13.2897 22.3751 12.4933 21.7875 11.9094C21.2 11.3254 20.4158 10.9994 19.6 11H10.15C9.31457 11 8.51335 11.3424 7.92261 11.9519C7.33187 12.5614 7 13.388 7 14.25V20.75C7 21.612 7.33187 22.4386 7.92261 23.0481C8.51335 23.6576 9.31457 24 10.15 24H19.6C20.4158 24.0006 21.2 23.6746 21.7875 23.0906C22.3751 22.5067 22.7201 21.7103 22.75 20.8692L26.488 22.7975C26.6311 22.8732 26.7892 22.914 26.95 22.9167C27.1466 22.9173 27.3394 22.861 27.5065 22.7542C27.6578 22.6566 27.7825 22.5208 27.8689 22.3597C27.9552 22.1986 28.0004 22.0174 28 21.8333V13.1667C28.0004 12.9826 27.9552 12.8014 27.8689 12.6403C27.7825 12.4792 27.6578 12.3434 27.5065 12.2458ZM20.65 20.75C20.65 21.0373 20.5394 21.3129 20.3425 21.516C20.1455 21.7192 19.8785 21.8333 19.6 21.8333H10.15C9.87152 21.8333 9.60445 21.7192 9.40754 21.516C9.21062 21.3129 9.1 21.0373 9.1 20.75V14.25C9.1 13.9627 9.21062 13.6871 9.40754 13.484C9.60445 13.2808 9.87152 13.1667 10.15 13.1667H19.6C19.8785 13.1667 20.1455 13.2808 20.3425 13.484C20.5394 13.6871 20.65 13.9627 20.65 14.25V20.75ZM25.9 20.0783L22.75 18.4533V16.5467L25.9 14.9217V20.0783Z" fill="white"/>
</g>
<defs>
<clipPath id="clip0_1839_6006">
<rect width="21" height="13" fill="white" transform="translate(7 11)"/>
</clipPath>
</defs>
</svg>
