<svg width="30" height="29" viewBox="0 0 30 29" fill="none" xmlns="http://www.w3.org/2000/svg">
<path d="M15.5625 2.0155C15.3474 2.00544 15.132 2.00027 14.9167 2C7.78408 2 2 7.5335 2 14.3574C2 17.6356 3.33429 20.6155 5.51204 22.8255C5.99125 23.3125 6.31158 23.9777 6.18242 24.6623C5.97215 25.7737 5.48976 26.8157 4.77837 27.6951C6.6407 28.0355 10.2344 26.8465 10.2344 26.8465C10.8208 26.5352 11.114 26.3789 11.322 26.3479C11.5299 26.3169 11.8257 26.3712 12.4173 26.4823C13.2414 26.6373 14.0784 26.7148 14.9167 26.7148C22.0493 26.7148 27.8333 21.1813 27.8333 14.3574C27.8333 14.1111 27.826 13.867 27.8114 13.625M18.7917 6.52083H27.8333M23.3125 2V11.0417M14.9115 14.9167H14.9218M20.0717 14.9167H20.0833M9.75 14.9167H9.76162" stroke="black" stroke-width="2.5" stroke-linecap="round" stroke-linejoin="round"/>
</svg>
