<svg width="28" height="29" viewBox="0 0 28 29" fill="none" xmlns="http://www.w3.org/2000/svg">
<path d="M23 7L23 7.05C23.1379 7.05011 23.2745 7.02304 23.402 6.97034C23.5294 6.91765 23.6453 6.84035 23.7428 6.74288L23.7429 6.74286L24.7429 5.74286C24.9399 5.54584 25.0506 5.27863 25.0506 5C25.0506 4.72138 24.9399 4.45416 24.7429 4.25714C24.5458 4.06013 24.2786 3.94944 24 3.94944C23.7214 3.94944 23.4542 4.06013 23.2571 4.25714L22.2572 5.25712C22.1102 5.40397 22.01 5.59114 21.9694 5.79493C21.9289 5.99872 21.9496 6.20997 22.0292 6.40193C22.1087 6.59389 22.2434 6.75794 22.4163 6.87331C22.5891 6.98867 22.7922 7.05016 23 7.05L23 7ZM23 7C22.8021 7.00016 22.6086 6.94159 22.444 6.83172C22.2794 6.72185 22.1511 6.56561 22.0754 6.38279C21.9996 6.19997 21.9798 5.99878 22.0185 5.80469C22.0571 5.61061 22.1525 5.43236 22.2925 5.2925L23.7075 6.7075C23.6146 6.80033 23.5042 6.87395 23.3829 6.92414C23.2615 6.97432 23.1314 7.0001 23 7ZM14.4432 11.8928C14.5612 11.9654 14.6925 12.014 14.8294 12.0356C17.1757 12.4303 18.95 14.5637 18.95 17C18.95 17.2785 19.0606 17.5455 19.2575 17.7425C19.4545 17.9394 19.7215 18.05 20 18.05C20.2785 18.05 20.5455 17.9394 20.7425 17.7425C20.9394 17.5455 21.05 17.2785 21.05 17C21.05 13.5521 18.5256 10.5278 15.1762 9.96492L15.1762 9.96451C15.0396 9.94036 14.8996 9.94351 14.7642 9.97377C14.6289 10.004 14.5008 10.0608 14.3876 10.1409C14.2743 10.2209 14.1779 10.3226 14.1042 10.44C14.0304 10.5575 13.9806 10.6884 13.9578 10.8252C13.9349 10.962 13.9393 11.102 13.9708 11.2371C14.0023 11.3722 14.0603 11.4997 14.1414 11.6122C14.2225 11.7247 14.325 11.8201 14.4432 11.8928ZM12.95 2V3C12.95 3.27848 13.0606 3.54555 13.2575 3.74246C13.4545 3.93938 13.7215 4.05 14 4.05C14.2785 4.05 14.5455 3.93938 14.7425 3.74246C14.9394 3.54555 15.05 3.27848 15.05 3V2C15.05 1.72152 14.9394 1.45445 14.7425 1.25754C14.5455 1.06062 14.2785 0.95 14 0.95C13.7215 0.95 13.4545 1.06062 13.2575 1.25754C13.0606 1.45445 12.95 1.72152 12.95 2ZM4.25714 6.74286C4.45416 6.93987 4.72138 7.05056 5 7.05056C5.27863 7.05056 5.54584 6.93987 5.74286 6.74286C5.93987 6.54584 6.05056 6.27863 6.05056 6C6.05056 5.72137 5.93987 5.45416 5.74286 5.25714L4.74286 4.25714C4.54584 4.06013 4.27862 3.94944 4 3.94944C3.72138 3.94944 3.45416 4.06013 3.25714 4.25714C3.06013 4.45416 2.94944 4.72138 2.94944 5C2.94944 5.27863 3.06013 5.54584 3.25714 5.74286L4.25714 6.74286ZM27.05 26V23C27.05 22.4563 26.834 21.9349 26.4496 21.5504C26.0769 21.1778 25.5756 20.9634 25.05 20.9506V17.125C25.05 11.0093 20.1309 5.99521 14.0841 5.95C12.626 5.9389 11.18 6.21652 9.82964 6.76686C8.47927 7.3172 7.25117 8.12938 6.21616 9.15658C5.18114 10.1838 4.35967 11.4057 3.79911 12.7518C3.23854 14.098 2.94996 15.5418 2.95 17V20.9506C2.42442 20.9634 1.92308 21.1778 1.55043 21.5504C1.16598 21.9349 0.95 22.4563 0.95 23V26C0.95 26.5437 1.16598 27.0651 1.55043 27.4496C1.93488 27.834 2.45631 28.05 3 28.05H25C25.5437 28.05 26.0651 27.834 26.4496 27.4496C26.834 27.0651 27.05 26.5437 27.05 26ZM22.95 17.125V20.95H5.05V17C5.05 14.6263 5.99294 12.3498 7.67139 10.6714C9.34984 8.99294 11.6263 8.05 14 8.05H14.0686C18.9654 8.08615 22.95 12.1519 22.95 17.125ZM24.95 23.05V25.95H3.05V23.05H24.95Z" fill="black" stroke="black" stroke-width="0.1"/>
</svg>
