<svg width="20" height="22" viewBox="0 0 20 22" fill="none" xmlns="http://www.w3.org/2000/svg">
<path fill-rule="evenodd" clip-rule="evenodd" d="M5.56379 5.76792C6.03736 6.1647 6.57816 6.37132 7.12505 6.37128C7.28886 6.37122 7.45219 6.35276 7.61225 6.31619C9.01783 5.99595 9.87007 4.33107 9.51204 2.6049C9.34406 1.79474 8.93568 1.08396 8.36216 0.603398C7.748 0.0888032 7.02051 -0.105983 6.3137 0.0551231C4.90815 0.375325 4.05592 2.0402 4.41391 3.76637C4.58192 4.57657 4.99031 5.28735 5.56379 5.76792ZM4.98585 6.37206C5.38148 7.09005 5.53536 7.90375 5.41932 8.66385C5.29486 9.47754 4.8814 10.1344 4.25515 10.5135C3.90332 10.7264 3.50392 10.8378 3.09765 10.8362C2.77154 10.8341 2.44856 10.7694 2.14471 10.6453C1.45878 10.3707 0.863205 9.82405 0.467701 9.10606C-0.3752 7.57625 -0.0473848 5.71842 1.19831 4.96461C1.82494 4.58561 2.57418 4.53878 3.30876 4.83282C3.99469 5.10755 4.59022 5.65408 4.98585 6.37206ZM13.3221 8.86401C14.277 9.62609 14.9669 10.6955 15.2861 11.9081L15.6261 13.2H12.1428V19.2218H7.16764C6.65411 19.2218 6.14752 19.0975 5.68737 18.8585C5.22722 18.6196 4.82594 18.2725 4.51483 17.8443C4.20371 17.4161 3.99117 16.9184 3.89377 16.3899C3.79636 15.8615 3.81674 15.3166 3.9533 14.7978L4.71388 11.9081C5.03304 10.6955 5.72298 9.62609 6.67785 8.86401C7.63272 8.10193 8.79978 7.68924 9.99999 7.68924C11.2002 7.68924 12.3673 8.10193 13.3221 8.86401ZM16.6912 4.83282C17.4257 4.53878 18.1753 4.58561 18.8017 4.96461C20.0474 5.71842 20.3752 7.57625 19.5324 9.10606C19.1369 9.82405 18.5413 10.3707 17.8554 10.6453C17.5515 10.7694 17.2285 10.8341 16.9024 10.8362C16.4961 10.8378 16.0967 10.7264 15.7449 10.5135C15.1509 10.1541 14.7484 9.54487 14.6024 8.78904C14.5664 8.7487 14.557 8.70697 14.5807 8.66385C14.4648 7.90392 14.6187 7.09005 15.0142 6.37206C15.4097 5.65408 16.0053 5.10746 16.6912 4.83282ZM12.3877 6.31619C12.5478 6.35276 12.7111 6.37122 12.8749 6.37128C13.4218 6.37128 13.9628 6.1647 14.4362 5.76792C15.0097 5.28739 15.4181 4.57657 15.5861 3.76641C15.9441 2.04025 15.0918 0.375369 13.6863 0.0551667C12.9795 -0.105852 12.252 0.0888032 11.6378 0.603442C11.0643 1.08396 10.6559 1.79479 10.4879 2.6049C10.1299 4.33107 10.9821 5.99595 12.3877 6.31619Z" fill="#FECACA"/>
<path d="M14.7198 20.3209L14.7191 20.3202C13.6059 19.2848 12.7216 18.4599 12.1098 17.6921C11.5038 16.9316 11.2143 16.2861 11.2143 15.6178C11.2143 14.5241 12.0389 13.7 13.0714 13.7C13.6612 13.7 14.2392 13.9842 14.6165 14.4352L15 14.8935L15.3835 14.4352C15.7608 13.9842 16.3388 13.7 16.9286 13.7C17.9611 13.7 18.7857 14.5241 18.7857 15.6178C18.7857 16.2861 18.4962 16.9316 17.8902 17.6921C17.2784 18.4599 16.3941 19.2848 15.2809 20.3202L15.2802 20.3209L15 20.5825L14.7198 20.3209Z" fill="#FE85AC" stroke="white"/>
</svg>
