<svg width="35" height="35" viewBox="0 0 35 35" fill="none" xmlns="http://www.w3.org/2000/svg">
<rect x="0.5" y="0.5" width="34" height="34" rx="17" fill="#FF5894" fill-opacity="0.62"/>
<rect x="0.5" y="0.5" width="34" height="34" rx="17" stroke="#FCD5CE"/>
<path d="M14.4126 26.0502C14.3751 26.0502 14.4126 26.0502 14.4126 26.0502C14.3001 26.0502 14.2251 26.0502 14.1501 26.0127C14.0751 25.9752 14.0001 25.9377 13.9251 25.9002C13.8876 25.8627 13.8126 25.8252 13.7751 25.7877C13.7001 25.7127 13.6626 25.6752 13.6251 25.6002C13.5876 25.5252 13.5501 25.4877 13.5501 25.4127L11.6376 18.2877L6.08756 16.3752C5.75006 16.2627 5.48756 15.9252 5.52506 15.5502C5.52506 15.1752 5.78756 14.8752 6.16256 14.7627L27.9126 8.9877H27.9501C27.9876 8.9877 28.0626 8.9877 28.1001 8.9502C28.1376 8.9502 28.1376 8.9502 28.1751 8.9502C28.2501 8.9502 28.3251 8.9502 28.4001 8.9877C28.4751 9.0252 28.5501 9.0627 28.6251 9.1002C28.6626 9.1002 28.6626 9.1377 28.7001 9.1377C28.7376 9.1752 28.7751 9.2127 28.7751 9.2127C28.8126 9.2502 28.8501 9.3252 28.8876 9.3627C28.9251 9.4377 28.9251 9.4752 28.9626 9.5502C28.9626 9.5877 28.9626 9.6627 29.0001 9.7002C29.0001 9.7377 29.0001 9.7752 29.0001 9.7752C29.0001 9.8502 29.0001 9.9252 28.9626 10.0002V10.0377L23.9751 23.2002C23.9001 23.4252 23.7126 23.6127 23.4876 23.6877C23.2626 23.7627 23.0376 23.7627 22.8126 23.6877L19.3251 22.0752L14.9751 25.8252C14.9376 25.8627 14.8626 25.9002 14.7876 25.9377C14.7126 25.9752 14.6376 26.0127 14.5626 26.0127C14.5251 26.0502 14.4501 26.0502 14.4126 26.0502ZM16.6626 20.6877L16.0626 22.6377L17.7126 21.2127L16.6626 20.6877ZM13.3626 18.0627L14.4501 22.1502L15.3501 19.2252V19.1877C15.3876 19.1127 15.4251 19.0377 15.4626 19.0002C15.5001 18.9627 15.5001 18.9252 15.5376 18.9252C15.5751 18.8877 15.6126 18.8502 15.6501 18.8127L21.6126 13.9752L13.3626 18.0627ZM19.5876 20.2752L22.7376 21.7377L26.2251 12.4002L17.7126 19.3002L19.5876 20.2752ZM9.27506 15.6627L12.3126 16.6752L20.2626 12.7377L9.27506 15.6627Z" fill="white"/>
</svg>
