<svg width="28" height="28" viewBox="0 0 28 28" fill="none" xmlns="http://www.w3.org/2000/svg">
<path fill-rule="evenodd" clip-rule="evenodd" d="M10.5081 3.50386C8.65013 3.50386 6.86828 4.24189 5.55452 5.55559C4.24075 6.86929 3.50269 8.65105 3.50269 10.5089C3.50269 12.3668 4.24075 14.1485 5.55452 15.4622C6.86828 16.7759 8.65013 17.514 10.5081 17.514C12.366 17.514 14.1479 16.7759 15.4616 15.4622C16.7754 14.1485 17.5134 12.3668 17.5134 10.5089C17.5134 8.65105 16.7754 6.86929 15.4616 5.55559C14.1479 4.24189 12.366 3.50386 10.5081 3.50386ZM1.9871e-07 10.5089C-0.000210844 8.8552 0.389924 7.22479 1.13867 5.75028C1.88742 4.27577 2.97365 2.9988 4.309 2.02322C5.64436 1.04764 7.19113 0.401001 8.82353 0.135897C10.4559 -0.129208 12.1279 -0.00529317 13.7033 0.497562C15.2788 1.00042 16.7134 1.86801 17.8903 3.02979C19.0672 4.19157 19.9533 5.61472 20.4765 7.1835C20.9996 8.75227 21.1451 10.4224 20.9011 12.058C20.6571 13.6936 20.0305 15.2485 19.0721 16.5963L27.5084 25.0321C27.8274 25.3624 28.0039 25.8048 27.9999 26.264C27.9959 26.7231 27.8118 27.1624 27.487 27.4871C27.1623 27.8118 26.7231 27.9959 26.2639 27.9999C25.8047 28.0039 25.3623 27.8274 25.032 27.5084L16.5975 19.0743C15.0254 20.1921 13.176 20.8556 11.2518 20.9922C9.32767 21.1287 7.40306 20.733 5.68889 19.8483C3.97473 18.9637 2.53715 17.6243 1.53369 15.977C0.530238 14.3296 -0.000374877 12.4378 1.9871e-07 10.5089Z" fill="black"/>
</svg>
