<svg width="30" height="28" viewBox="0 0 30 28" fill="none" xmlns="http://www.w3.org/2000/svg">
<path fill-rule="evenodd" clip-rule="evenodd" d="M18.4645 24.2933C17.441 24.5542 16.4036 24.7219 15.3522 24.7966C16.886 25.8435 18.8349 26.4677 20.9436 26.4677C21.4692 26.4667 21.986 26.4284 22.4937 26.3527C22.6835 26.4316 22.8676 26.5234 23.0448 26.6275C23.661 26.9968 24.259 27.3955 24.8369 27.8222C25.4477 28.2613 26.3139 27.8372 26.3139 27.0964V24.9429C26.6231 24.7443 26.9199 24.5269 27.2024 24.2918C28.8915 22.8805 29.8682 20.9481 29.8682 18.8782C29.8652 17.5446 29.462 16.2453 28.7153 15.1402C28.4838 15.9228 28.1672 16.6784 27.7789 17.3953C27.9357 17.874 28.0158 18.3745 28.0163 18.8782C28.0163 20.4015 27.2876 21.8396 25.9973 22.9194C25.6702 23.1912 25.3118 23.4406 24.9265 23.6541C24.786 23.7313 24.6688 23.8448 24.5871 23.9827C24.5055 24.1206 24.4622 24.2779 24.462 24.4382V25.3581C23.5764 24.7981 22.9686 24.5323 22.5057 24.5323C22.4537 24.5335 22.4019 24.5375 22.3503 24.5442C21.0528 24.7566 19.724 24.6708 18.4645 24.2933ZM0 11.9682C0 15.2209 1.53821 18.2614 4.20245 20.4866V20.4896C4.6946 20.9017 5.21564 21.278 5.76157 21.6156V25.2894C5.76157 26.2168 6.84578 26.7485 7.60742 26.1974C9.71462 24.6786 11.1767 23.8214 11.5426 23.7363C12.3898 23.8687 13.25 23.9349 14.1232 23.9349C21.8874 23.9349 28.2478 18.6198 28.2478 11.9682C28.2478 5.31657 21.8874 3.48091e-05 14.1232 3.48091e-05C6.35893 3.48091e-05 0 5.31657 0 11.9682ZM11.789 21.4872C11.7223 21.4772 11.6575 21.4723 11.5948 21.4723H11.5933C10.8406 21.4723 9.74449 21.995 8.07784 23.1001V20.9809C8.07784 20.5777 7.85533 20.2044 7.49542 20.0027C6.85225 19.6413 6.25688 19.2326 5.7093 18.7767C3.54087 16.9637 2.31478 14.5414 2.31478 11.9682C2.31478 6.64869 7.5671 2.25956 14.1232 2.25956C20.6822 2.25956 25.9315 6.64719 25.9315 11.9682C25.9315 17.2892 20.6822 21.6783 14.1232 21.6783C13.3412 21.6791 12.5604 21.6151 11.789 21.4872ZM9.72042 13.4525C9.37033 13.8026 8.89552 13.9992 8.40042 13.9992C7.90533 13.9992 7.43051 13.8026 7.08042 13.4525C6.73034 13.1024 6.53366 12.6276 6.53366 12.1325C6.53366 11.6374 6.73034 11.1626 7.08042 10.8125C7.43051 10.4624 7.90533 10.2657 8.40042 10.2657C8.89552 10.2657 9.37033 10.4624 9.72042 10.8125C10.0705 11.1626 10.2672 11.6374 10.2672 12.1325C10.2672 12.6276 10.0705 13.1024 9.72042 13.4525ZM15.7866 13.4525C15.4366 13.8026 14.9617 13.9992 14.4666 13.9992C13.9715 13.9992 13.4967 13.8026 13.1466 13.4525C12.7966 13.1024 12.5999 12.6276 12.5999 12.1325C12.5999 11.6374 12.7966 11.1626 13.1466 10.8125C13.4967 10.4624 13.9715 10.2657 14.4666 10.2657C14.9617 10.2657 15.4366 10.4624 15.7866 10.8125C16.1367 11.1626 16.3334 11.6374 16.3334 12.1325C16.3334 12.6276 16.1367 13.1024 15.7866 13.4525ZM21.8544 13.454C21.5043 13.8041 21.0295 14.0007 20.5344 14.0007C20.0393 14.0007 19.5644 13.8041 19.2144 13.454C18.8643 13.1039 18.6676 12.6291 18.6676 12.134C18.6676 11.6389 18.8643 11.1641 19.2144 10.814C19.5644 10.4639 20.0393 10.2672 20.5344 10.2672C21.0295 10.2672 21.5043 10.4639 21.8544 10.814C22.2044 11.1641 22.4011 11.6389 22.4011 12.134C22.4011 12.6291 22.2044 13.1039 21.8544 13.454Z" fill="black"/>
</svg>
