<svg width="36" height="36" viewBox="0 0 36 36" fill="none" xmlns="http://www.w3.org/2000/svg">
<path fill-rule="evenodd" clip-rule="evenodd" d="M35.123 5.12124C36.2946 3.94963 36.2945 2.05013 35.1229 0.878601C33.9513 -0.292928 32.0518 -0.292858 30.8802 0.878758L18.0009 13.7591L5.12148 0.878758C3.94995 -0.292858 2.05045 -0.292928 0.878834 0.878601C-0.292782 2.05013 -0.292854 3.94963 0.878677 5.12124L13.7584 18.0019L0.878601 30.8826C-0.292928 32.0542 -0.292858 33.9537 0.878758 35.1253C2.05037 36.2968 3.94987 36.2967 5.1214 35.1251L18.0009 22.2447L30.8803 35.1251C32.0518 36.2967 33.9513 36.2968 35.123 35.1253C36.2946 33.9537 36.2946 32.0542 35.1231 30.8826L22.2433 18.0019L35.123 5.12124Z" fill="#1E1E1E"/>
</svg>
