<svg width="32" height="33" viewBox="0 0 32 33" fill="none" xmlns="http://www.w3.org/2000/svg">
<path d="M25 6.5L25 6.55C25.1379 6.55011 25.2745 6.52304 25.402 6.47034C25.5294 6.41765 25.6453 6.34035 25.7428 6.24288L25.7429 6.24286L26.7429 5.24286C26.9399 5.04584 27.0506 4.77863 27.0506 4.5C27.0506 4.22138 26.9399 3.95416 26.7429 3.75714C26.5458 3.56013 26.2786 3.44944 26 3.44944C25.7214 3.44944 25.4542 3.56013 25.2571 3.75714L24.2572 4.75712C24.1102 4.90397 24.01 5.09114 23.9694 5.29493C23.9289 5.49872 23.9496 5.70997 24.0292 5.90193C24.1087 6.09389 24.2434 6.25794 24.4163 6.37331C24.5891 6.48867 24.7922 6.55016 25 6.55L25 6.5ZM25 6.5C24.8021 6.50016 24.6086 6.44159 24.444 6.33172C24.2794 6.22185 24.1511 6.06561 24.0754 5.88279C23.9996 5.69997 23.9798 5.49878 24.0185 5.30469C24.0571 5.11061 24.1525 4.93236 24.2925 4.7925L25.7075 6.2075C25.6146 6.30033 25.5042 6.37395 25.3829 6.42414C25.2615 6.47432 25.1314 6.5001 25 6.5ZM16.4432 11.3928C16.5612 11.4654 16.6925 11.514 16.8294 11.5356C19.1757 11.9303 20.95 14.0637 20.95 16.5C20.95 16.7785 21.0606 17.0455 21.2575 17.2425C21.4545 17.4394 21.7215 17.55 22 17.55C22.2785 17.55 22.5455 17.4394 22.7425 17.2425C22.9394 17.0455 23.05 16.7785 23.05 16.5C23.05 13.0521 20.5256 10.0278 17.1762 9.46492L17.1762 9.46451C17.0396 9.44036 16.8996 9.44351 16.7642 9.47377C16.6289 9.50404 16.5008 9.56083 16.3876 9.64086C16.2743 9.72088 16.1779 9.82257 16.1042 9.94003C16.0304 10.0575 15.9806 10.1884 15.9578 10.3252C15.9349 10.462 15.9393 10.602 15.9708 10.7371C16.0023 10.8722 16.0603 10.9997 16.1414 11.1122C16.2225 11.2247 16.325 11.3201 16.4432 11.3928ZM14.95 1.5V2.5C14.95 2.77848 15.0606 3.04555 15.2575 3.24246C15.4545 3.43938 15.7215 3.55 16 3.55C16.2785 3.55 16.5455 3.43938 16.7425 3.24246C16.9394 3.04555 17.05 2.77848 17.05 2.5V1.5C17.05 1.22152 16.9394 0.954451 16.7425 0.757538C16.5455 0.560625 16.2785 0.45 16 0.45C15.7215 0.45 15.4545 0.560625 15.2575 0.757538C15.0606 0.954451 14.95 1.22152 14.95 1.5ZM6.25714 6.24286C6.45416 6.43987 6.72138 6.55056 7 6.55056C7.27863 6.55056 7.54584 6.43987 7.74286 6.24286C7.93987 6.04584 8.05056 5.77863 8.05056 5.5C8.05056 5.22137 7.93987 4.95416 7.74286 4.75714L6.74286 3.75714C6.54584 3.56013 6.27862 3.44944 6 3.44944C5.72138 3.44944 5.45416 3.56013 5.25714 3.75714C5.06013 3.95416 4.94944 4.22138 4.94944 4.5C4.94944 4.77863 5.06013 5.04584 5.25714 5.24286L6.25714 6.24286ZM29.05 25.5V22.5C29.05 21.9563 28.834 21.4349 28.4496 21.0504C28.0769 20.6778 27.5756 20.4634 27.05 20.4506V16.625C27.05 10.5093 22.1309 5.49521 16.0841 5.45C14.626 5.4389 13.18 5.71652 11.8296 6.26686C10.4793 6.8172 9.25117 7.62938 8.21616 8.65658C7.18114 9.68377 6.35967 10.9057 5.79911 12.2518C5.23854 13.598 4.94996 15.0418 4.95 16.5V20.4506C4.42442 20.4634 3.92308 20.6778 3.55043 21.0504C3.16598 21.4349 2.95 21.9563 2.95 22.5V25.5C2.95 26.0437 3.16598 26.5651 3.55043 26.9496C3.93488 27.334 4.45631 27.55 5 27.55H27C27.5437 27.55 28.0651 27.334 28.4496 26.9496C28.834 26.5651 29.05 26.0437 29.05 25.5ZM24.95 16.625V20.45H7.05V16.5C7.05 14.1263 7.99294 11.8498 9.67139 10.1714C11.3498 8.49294 13.6263 7.55 16 7.55H16.0686C20.9654 7.58615 24.95 11.6519 24.95 16.625ZM26.95 22.55V25.45H5.05V22.55H26.95Z" fill="white" stroke="black" stroke-width="0.1"/>
</svg>
